<?xml version="1.0" encoding="utf-8"?>

<!-- Uploaded to: SVG Repo, www.svgrepo.com, Generator: SVG Repo Mixer Tools -->
<svg fill="#000000" version="1.1" id="Layer_1" xmlns="http://www.w3.org/2000/svg" xmlns:xlink="http://www.w3.org/1999/xlink" 
	 viewBox="0 0 24 24" xml:space="preserve">
<style type="text/css">
	.st0{fill:none;}
</style>
<path d="M4,3C2.9,3,2,3.9,2,5v3c1.1,0,2,0.9,2,2s-0.9,2-2,2v3c0,1.1,0.9,2,2,2h16c1.1,0,2-0.9,2-2v-3c-1.1,0-2-0.9-2-2s0.9-2,2-2V5
	c0-1.1-0.9-2-2-2H4z M4.1,18L19,21.6c1.1,0.3,2.1-0.4,2.4-1.5L22,18H4.1z"/>
<rect class="st0" width="24" height="24"/>
</svg>